HIERARCHY
ROOT Hips
{
	OFFSET 0.000000 71.427986 0.000000
	CHANNELS 6 Xposition Yposition Zposition Xrotation Yrotation Zrotation
	JOINT Pelvis
	{
		OFFSET 0.000000 0.000000 0.000000
		CHANNELS 3 Xrotation Yrotation Zrotation
		JOINT LeftUpLeg
		{
			OFFSET 6.797100 -2.508499 -1.318700
			CHANNELS 3 Xrotation Yrotation Zrotation
			JOINT LeftLeg
			{
				OFFSET 0.069008 -29.241863 0.690200
				CHANNELS 3 Xrotation Yrotation Zrotation
				JOINT LeftFoot
				{
					OFFSET -0.069008 -29.568123 -0.266800
					CHANNELS 3 Xrotation Yrotation Zrotation
					JOINT LeftToeBase
					{
						OFFSET 3.145500 -8.631000 16.059900
						CHANNELS 3 Xrotation Yrotation Zrotation
						End Site
						{
							OFFSET 0.000000 18.501587 0.000000
						}
					}
				}
			}
			JOINT Left_ShortSleeve
			{
				OFFSET 0.265923 -10.480953 1.153800
				CHANNELS 3 Xrotation Yrotation Zrotation
				End Site
				{
					OFFSET 1.725763 19.823879 0.000000
				}
			}
		}
		JOINT RightUpLeg
		{
			OFFSET -6.797100 -2.508499 -1.318700
			CHANNELS 3 Xrotation Yrotation Zrotation
			JOINT RightLeg
			{
				OFFSET -0.082453 -29.241932 0.688000
				CHANNELS 3 Xrotation Yrotation Zrotation
				JOINT RightFoot
				{
					OFFSET 0.082453 -29.568058 -0.264600
					CHANNELS 3 Xrotation Yrotation Zrotation
					JOINT RightToeBase
					{
						OFFSET -3.115300 -8.682800 16.113400
						CHANNELS 3 Xrotation Yrotation Zrotation
						End Site
						{
							OFFSET 0.000000 18.567114 0.000000
						}
					}
				}
			}
			JOINT Right_ShortSleeve
			{
				OFFSET -0.265923 -10.480953 1.153800
				CHANNELS 3 Xrotation Yrotation Zrotation
				End Site
				{
					OFFSET -1.725766 19.823910 0.000000
				}
			}
		}
	}
	JOINT Spine
	{
		OFFSET 0.000000 13.368103 0.470500
		CHANNELS 3 Xrotation Yrotation Zrotation
		JOINT Spine1
		{
			OFFSET 0.147000 13.837402 0.538800
			CHANNELS 3 Xrotation Yrotation Zrotation
			JOINT Spine2
			{
				OFFSET 0.168000 16.242897 -1.435500
				CHANNELS 3 Xrotation Yrotation Zrotation
				JOINT Neck
				{
					OFFSET 0.217200 18.631500 -1.679100
					CHANNELS 3 Xrotation Yrotation Zrotation
					JOINT Head
					{
						OFFSET 0.000000 6.599396 1.385900
						CHANNELS 3 Xrotation Yrotation Zrotation
						JOINT Hat
						{
							OFFSET -0.532200 27.220596 -10.096100
							CHANNELS 3 Xrotation Yrotation Zrotation
							End Site
							{
								OFFSET 0.000000 22.029861 0.000000
							}
						}
						JOINT HairD
						{
							OFFSET -10.777400 17.437393 -1.325900
							CHANNELS 3 Xrotation Yrotation Zrotation
							JOINT HairD1
							{
								OFFSET -3.290299 -11.051193 1.062200
								CHANNELS 3 Xrotation Yrotation Zrotation
								End Site
								{
									OFFSET 0.000000 11.579437 0.000000
								}
							}
						}
						JOINT HairB
						{
							OFFSET -10.777400 17.437393 1.467900
							CHANNELS 3 Xrotation Yrotation Zrotation
							JOINT HairB1
							{
								OFFSET -1.561200 -12.956299 3.590200
								CHANNELS 3 Xrotation Yrotation Zrotation
								End Site
								{
									OFFSET 0.000000 13.534866 0.000000
								}
							}
						}
						JOINT HairA
						{
							OFFSET 9.713100 17.437393 1.467900
							CHANNELS 3 Xrotation Yrotation Zrotation
							JOINT HairA1
							{
								OFFSET 1.561200 -12.956299 3.590200
								CHANNELS 3 Xrotation Yrotation Zrotation
								End Site
								{
									OFFSET 0.000000 13.534866 0.000000
								}
							}
						}
						JOINT HairC
						{
							OFFSET 9.713100 17.437393 -1.325900
							CHANNELS 3 Xrotation Yrotation Zrotation
							JOINT HairC1
							{
								OFFSET 3.290300 -11.051193 1.062200
								CHANNELS 3 Xrotation Yrotation Zrotation
								End Site
								{
									OFFSET 0.000000 11.579437 0.000000
								}
							}
						}
					}
				}
				JOINT LeftShoulder
				{
					OFFSET 5.101800 15.108002 -2.763700
					CHANNELS 3 Xrotation Yrotation Zrotation
					JOINT LeftArm
					{
						OFFSET 9.825497 2.506317 -1.597400
						CHANNELS 3 Xrotation Yrotation Zrotation
						JOINT LeftForeArm
						{
							OFFSET 21.966244 0.000000 0.000000
							CHANNELS 3 Xrotation Yrotation Zrotation
							JOINT LeftHand
							{
								OFFSET 33.879036 0.000000 0.000000
								CHANNELS 3 Xrotation Yrotation Zrotation
								JOINT LeftHandThumb1
								{
									OFFSET 6.715286 -2.359680 3.363841
									CHANNELS 3 Xrotation Yrotation Zrotation
									JOINT LeftHandThumb2
									{
										OFFSET 2.507072 -1.447464 1.447461
										CHANNELS 3 Xrotation Yrotation Zrotation
										JOINT LeftHandThumb3
										{
											OFFSET 2.898338 -1.673355 1.673357
											CHANNELS 3 Xrotation Yrotation Zrotation
											End Site
											{
												OFFSET -0.295959 3.727692 -0.131651
											}
										}
									}
								}
								JOINT LeftHandIndex1
								{
									OFFSET 14.190811 -0.254547 3.840278
									CHANNELS 3 Xrotation Yrotation Zrotation
									JOINT LeftHandIndex2
									{
										OFFSET 3.551727 0.000000 -0.000000
										CHANNELS 3 Xrotation Yrotation Zrotation
										JOINT LeftHandIndex3
										{
											OFFSET 2.894196 0.000000 0.000000
											CHANNELS 3 Xrotation Yrotation Zrotation
											End Site
											{
												OFFSET -1.000603 2.690872 0.366626
											}
										}
									}
								}
								JOINT LeftHandMiddle1
								{
									OFFSET 13.776489 0.000000 0.000000
									CHANNELS 3 Xrotation Yrotation Zrotation
									JOINT LeftHandMiddle2
									{
										OFFSET 3.438232 0.000000 0.000000
										CHANNELS 3 Xrotation Yrotation Zrotation
										JOINT LeftHandMiddle3
										{
											OFFSET 3.691551 0.000000 0.000000
											CHANNELS 3 Xrotation Yrotation Zrotation
											End Site
											{
												OFFSET -1.082298 3.499527 0.457670
											}
										}
									}
								}
								JOINT LeftHandRing1
								{
									OFFSET 13.966164 -0.268127 -3.067488
									CHANNELS 3 Xrotation Yrotation Zrotation
									JOINT LeftHandRing2
									{
										OFFSET 3.162567 0.000000 0.000000
										CHANNELS 3 Xrotation Yrotation Zrotation
										JOINT LeftHandRing3
										{
											OFFSET 3.324348 0.000000 0.000000
											CHANNELS 3 Xrotation Yrotation Zrotation
											End Site
											{
												OFFSET -0.861900 3.184998 0.405154
											}
										}
									}
								}
								JOINT LeftHandPinky1
								{
									OFFSET 13.131393 -0.168503 -5.746925
									CHANNELS 3 Xrotation Yrotation Zrotation
									JOINT LeftHandPinky2
									{
										OFFSET 2.849182 0.000000 0.000000
										CHANNELS 3 Xrotation Yrotation Zrotation
										JOINT LeftHandPinky3
										{
											OFFSET 2.805038 0.000000 0.000000
											CHANNELS 3 Xrotation Yrotation Zrotation
											End Site
											{
												OFFSET -0.882500 2.642609 0.325652
											}
										}
									}
								}
							}
							JOINT Left_Sleeve
							{
								OFFSET 6.592125 -0.646545 0.805568
								CHANNELS 3 Xrotation Yrotation Zrotation
								End Site
								{
									OFFSET -0.000179 20.275787 -0.000000
								}
							}
						}
					}
				}
				JOINT RightShoulder
				{
					OFFSET -5.731700 15.108002 -2.763700
					CHANNELS 3 Xrotation Yrotation Zrotation
					JOINT RightArm
					{
						OFFSET -9.825497 2.506317 -1.597400
						CHANNELS 3 Xrotation Yrotation Zrotation
						JOINT RightForeArm
						{
							OFFSET -21.966242 0.000000 0.000000
							CHANNELS 3 Xrotation Yrotation Zrotation
							JOINT RightHand
							{
								OFFSET -33.879032 0.000000 0.000000
								CHANNELS 3 Xrotation Yrotation Zrotation
								JOINT RightHandThumb1
								{
									OFFSET -6.715286 -2.359680 3.363841
									CHANNELS 3 Xrotation Yrotation Zrotation
									JOINT RightHandThumb2
									{
										OFFSET -2.507072 -1.447464 1.447461
										CHANNELS 3 Xrotation Yrotation Zrotation
										JOINT RightHandThumb3
										{
											OFFSET -2.898338 -1.673355 1.673357
											CHANNELS 3 Xrotation Yrotation Zrotation
											End Site
											{
												OFFSET 0.295959 3.727692 -0.131651
											}
										}
									}
								}
								JOINT RightHandIndex1
								{
									OFFSET -14.190811 -0.254547 3.840278
									CHANNELS 3 Xrotation Yrotation Zrotation
									JOINT RightHandIndex2
									{
										OFFSET -3.551727 0.000000 -0.000000
										CHANNELS 3 Xrotation Yrotation Zrotation
										JOINT RightHandIndex3
										{
											OFFSET -2.894196 0.000000 0.000000
											CHANNELS 3 Xrotation Yrotation Zrotation
											End Site
											{
												OFFSET 1.000603 2.690872 0.366626
											}
										}
									}
								}
								JOINT RightHandMiddle1
								{
									OFFSET -13.776489 0.000000 0.000000
									CHANNELS 3 Xrotation Yrotation Zrotation
									JOINT RightHandMiddle2
									{
										OFFSET -3.438232 0.000000 0.000000
										CHANNELS 3 Xrotation Yrotation Zrotation
										JOINT RightHandMiddle3
										{
											OFFSET -3.691551 0.000000 0.000000
											CHANNELS 3 Xrotation Yrotation Zrotation
											End Site
											{
												OFFSET 1.082298 3.499527 0.457670
											}
										}
									}
								}
								JOINT RightHandRing1
								{
									OFFSET -13.966164 -0.268127 -3.067488
									CHANNELS 3 Xrotation Yrotation Zrotation
									JOINT RightHandRing2
									{
										OFFSET -3.162567 0.000000 0.000000
										CHANNELS 3 Xrotation Yrotation Zrotation
										JOINT RightHandRing3
										{
											OFFSET -3.324348 0.000000 0.000000
											CHANNELS 3 Xrotation Yrotation Zrotation
											End Site
											{
												OFFSET 0.861900 3.184998 0.405154
											}
										}
									}
								}
								JOINT RightHandPinky1
								{
									OFFSET -13.131393 -0.168503 -5.746925
									CHANNELS 3 Xrotation Yrotation Zrotation
									JOINT RightHandPinky2
									{
										OFFSET -2.849182 0.000000 0.000000
										CHANNELS 3 Xrotation Yrotation Zrotation
										JOINT RightHandPinky3
										{
											OFFSET -2.805038 0.000000 0.000000
											CHANNELS 3 Xrotation Yrotation Zrotation
											End Site
											{
												OFFSET 0.882500 2.642609 0.325652
											}
										}
									}
								}
							}
							JOINT Right_Sleeve
							{
								OFFSET -6.592125 -0.646545 0.805568
								CHANNELS 3 Xrotation Yrotation Zrotation
								End Site
								{
									OFFSET 0.000179 20.275787 -0.000000
								}
							}
						}
					}
				}
				JOINT Bind_Right_JacketString
				{
					OFFSET -3.534800 11.969597 7.200700
					CHANNELS 3 Xrotation Yrotation Zrotation
					JOINT Bind_Right_JacketString1
					{
						OFFSET -0.319900 -6.102600 2.794100
						CHANNELS 3 Xrotation Yrotation Zrotation
						End Site
						{
							OFFSET 0.000000 6.719452 0.000000
						}
					}
				}
				JOINT Bind_Left_JacketString
				{
					OFFSET 2.904800 11.969597 7.200700
					CHANNELS 3 Xrotation Yrotation Zrotation
					JOINT Bind_Left_JacketString1
					{
						OFFSET 0.364800 -5.904503 3.186800
						CHANNELS 3 Xrotation Yrotation Zrotation
						End Site
						{
							OFFSET 0.000000 6.719513 0.000000
						}
					}
				}
				JOINT HairE
				{
					OFFSET 5.915200 17.612701 -11.592200
					CHANNELS 3 Xrotation Yrotation Zrotation
					JOINT HairE1
					{
						OFFSET 0.289200 -7.171898 -1.284500
						CHANNELS 3 Xrotation Yrotation Zrotation
						End Site
						{
							OFFSET 0.000000 7.291756 0.000000
						}
					}
				}
				JOINT HairF
				{
					OFFSET -0.864800 17.612701 -11.592200
					CHANNELS 3 Xrotation Yrotation Zrotation
					JOINT HairF1
					{
						OFFSET 0.000000 -14.087097 -2.127501
						CHANNELS 3 Xrotation Yrotation Zrotation
						End Site
						{
							OFFSET 0.000000 14.246841 0.000000
						}
					}
				}
				JOINT HairG
				{
					OFFSET -8.087700 17.612701 -11.592200
					CHANNELS 3 Xrotation Yrotation Zrotation
					JOINT HairG1
					{
						OFFSET -0.293600 -6.081398 -0.910100
						CHANNELS 3 Xrotation Yrotation Zrotation
						End Site
						{
							OFFSET 0.000000 6.156120 0.000000
						}
					}
				}
			}
		}
	}
	JOINT Pouch
	{
		OFFSET 0.000000 4.394501 10.847300
		CHANNELS 3 Xrotation Yrotation Zrotation
		End Site
		{
			OFFSET 0.000000 21.880577 0.000000
		}
	}
	JOINT Bag
	{
		OFFSET -13.229000 4.813004 -0.593300
		CHANNELS 3 Xrotation Yrotation Zrotation
		End Site
		{
			OFFSET 0.000000 21.880577 0.000000
		}
	}
	JOINT OccupyGuyFacialAnim_Joint
	{
		OFFSET 1.000000 -70.206398 -1.655000
		CHANNELS 3 Xrotation Yrotation Zrotation
		End Site
		{
			OFFSET 0.000000 21.880577 0.000000
		}
	}
}
MOTION
Frames: 5
Frame Time: 0.033333
-0.034633 62.218346 1.044586 9.186138 3.683508 5.103480 -0.000000 0.000000 -0.000000 -58.897452 3.969513 5.966674 62.770313 -5.555699 0.503805 -8.845095 16.023246 2.410383 -0.000000 0.000001 -0.000001 -0.000000 0.000001 0.000000 -54.800322 -10.565325 -6.429310 45.448448 -1.826210 5.383439 -3.244910 -3.989151 -13.818218 0.000000 0.000002 0.000000 0.000001 0.000001 -0.000001 30.490087 5.137248 6.348216 4.410409 0.449872 2.286174 4.410814 0.322090 2.321599 1.772568 -1.777222 0.318140 -24.423305 -23.570180 3.183792 -0.000003 -0.000000 -0.000000 -0.000003 -0.000000 -0.000000 -0.000003 -0.000000 -0.000001 -0.000003 -0.000000 -0.000002 -0.000004 0.000002 -0.000001 -0.000003 -0.000000 -0.000002 -0.000004 0.000002 -0.000001 -0.000003 -0.000000 -0.000000 -0.000003 -0.000000 -0.000000 1.705822 -20.267391 -7.960215 -55.281881 -42.815321 -68.549056 -0.000009 -47.845287 0.000000 25.815202 -29.819356 29.177752 -0.976576 -1.561165 11.602465 17.542928 16.936535 -2.551004 -0.000003 -0.000002 0.000001 1.016141 0.922275 -32.249042 0.455455 2.266628 -22.720911 0.000001 -0.000002 -0.000002 3.109006 8.534927 -34.911016 0.557738 2.496652 -25.181425 -0.000000 0.000002 0.000001 5.703413 12.135265 -35.162825 0.786633 2.934119 -30.010625 -0.000001 0.000002 0.000000 9.872472 17.941782 -35.471177 0.854988 3.049243 -31.320249 -0.000000 -0.000004 0.000001 0.000003 -0.000004 0.000002 1.394595 24.403412 13.663804 -19.258722 27.909230 19.982021 -0.000001 17.094681 0.000004 33.420939 11.938459 -15.495030 -13.584859 -2.598143 -22.289059 21.365868 -17.767477 21.037954 -0.000000 -0.000001 0.000002 0.051355 3.301192 3.670396 0.426047 -1.947735 24.674799 -0.000000 0.000002 0.000001 -0.713113 -0.487699 17.104035 0.592407 -2.274966 29.187304 0.000001 0.000001 -0.000001 0.273544 -3.839143 26.825797 0.271463 -1.568259 19.638619 0.000000 -0.000002 -0.000000 -4.188815 -9.606030 28.623327 0.562056 -2.219817 28.413546 0.000000 0.000003 0.000003 0.000003 0.000001 -0.000002 -0.000003 0.000001 0.000001 -0.000003 0.000001 -0.000000 -0.000003 0.000001 0.000001 -0.000003 0.000001 0.000001 -0.000003 0.000001 0.000001 -0.000003 0.000001 0.000000 -0.000003 0.000001 0.000001 -0.000003 0.000001 0.000001 -0.000003 0.000001 0.000001 -0.000003 0.000001 0.000000 -0.000000 0.000000 -0.000000 -0.000000 0.000000 -0.000000 -0.000000 0.000000 -0.000000 
0.492381 63.133514 -1.997966 8.677549 1.087623 5.424885 -0.000000 0.000000 -0.000000 -53.233163 7.289239 9.616560 68.618655 -3.868191 -0.435807 -11.233160 14.056126 3.384115 -0.000001 0.000002 -0.000001 -0.000002 0.000000 -0.000000 -50.777470 -8.456034 -3.472765 33.981390 -4.091735 4.302128 5.442612 -3.280549 -13.281491 0.000000 -0.000000 -0.000000 -0.000001 0.000001 -0.000001 28.253079 5.888232 5.542111 4.350237 0.810163 2.004721 4.349841 0.703816 2.013626 1.806675 -2.274115 0.201450 -20.753702 -21.652039 0.414813 -0.000002 0.000001 0.000000 -0.000002 0.000001 0.000000 -0.000002 0.000001 -0.000000 -0.000002 0.000001 -0.000000 -0.000000 -0.000000 0.000000 -0.000002 0.000001 -0.000000 -0.000000 -0.000000 0.000000 -0.000002 0.000001 0.000000 -0.000002 0.000001 0.000000 1.514292 -20.011051 -10.487751 -46.384170 -32.139056 -64.812437 -0.000011 -41.866068 -0.000045 31.447557 -35.271828 32.553747 -1.181052 -2.790165 11.198025 16.711904 15.551127 -1.677696 0.000005 -0.000000 -0.000001 2.189724 2.581736 -27.530817 0.311315 1.886056 -18.744119 -0.000001 0.000003 -0.000003 3.947410 10.378304 -31.021510 0.340582 1.970192 -19.614382 0.000002 0.000002 0.000001 6.433350 14.376302 -31.178393 0.605845 2.596461 -26.264280 -0.000000 -0.000000 -0.000002 11.947675 19.872077 -37.171071 0.628911 2.642647 -26.769451 0.000000 -0.000001 -0.000001 -0.000001 0.000000 -0.000000 1.925983 20.916179 13.705978 -24.009705 31.489686 25.074376 0.000006 18.304917 0.000002 20.750588 11.231357 -17.703249 -13.266635 -2.792329 -21.693277 19.687872 -15.505771 19.123476 -0.000000 -0.000004 0.000002 0.033645 2.354179 7.941580 0.501391 -2.103904 26.805631 -0.000000 -0.000002 0.000002 -1.108794 -0.704696 24.298191 0.796919 -2.607265 33.986021 0.000000 -0.000001 -0.000001 0.176959 -3.887483 33.724681 0.508072 -2.117059 26.986929 0.000001 0.000001 0.000000 -3.808441 -10.123320 35.481398 0.850254 -2.684645 35.141737 -0.000003 -0.000001 -0.000001 0.000001 0.000001 -0.000002 -0.000002 0.000000 0.000000 0.000001 0.000001 -0.000000 -0.000002 0.000000 0.000000 -0.000002 0.000000 0.000000 -0.000002 0.000000 0.000000 0.000001 0.000001 -0.000000 -0.000002 0.000000 0.000000 -0.000002 0.000000 0.000000 -0.000002 0.000000 0.000000 0.000001 0.000001 -0.000000 -0.000000 0.000000 -0.000000 -0.000000 0.000000 -0.000000 -0.000000 0.000000 -0.000000 
0.900550 64.069031 -4.678099 7.451101 -1.603579 6.045321 -0.000000 0.000000 -0.000000 -44.698602 10.966139 11.550543 70.827047 1.241618 -2.145048 -14.402320 7.119872 -0.172263 -0.000001 0.000000 -0.000000 0.000002 0.000000 -0.000000 -43.810848 -7.777655 -0.394251 18.710617 -2.845324 1.830035 14.547395 -4.719009 -12.491866 0.000000 -0.000000 0.000000 0.000004 0.000000 -0.000002 25.937613 6.333194 4.605980 4.299766 1.092354 1.737899 4.298997 1.001980 1.728381 2.581508 -2.928503 -0.670983 -15.867533 -20.569103 -2.517554 0.000002 -0.000001 -0.000001 0.000002 -0.000001 -0.000001 0.000002 -0.000001 -0.000000 0.000002 -0.000001 -0.000001 0.000002 -0.000001 0.000001 0.000002 -0.000001 -0.000001 0.000002 -0.000001 0.000001 0.000002 -0.000001 -0.000001 0.000002 -0.000001 -0.000001 1.283586 -19.758037 -12.934270 -41.969661 -23.582287 -61.809169 -0.000003 -30.992376 0.000007 37.432124 -27.533145 33.889459 -1.514755 -4.686587 10.563182 16.085944 14.425628 -1.003441 0.000000 -0.000000 -0.000000 1.582292 -2.142107 -13.091220 0.146530 1.303526 -12.829114 0.000004 0.000002 -0.000003 1.029027 5.850089 -22.443033 0.145760 1.300006 -12.794210 0.000001 -0.000001 0.000002 5.504362 14.200078 -27.188666 0.376972 2.069382 -20.646415 0.000002 0.000001 0.000001 11.235868 19.752589 -35.476310 0.275707 1.777701 -17.629989 0.000003 0.000000 -0.000001 -0.000003 0.000000 0.000001 2.085625 18.129586 13.189001 -28.749185 33.419245 32.788012 0.000005 18.861192 0.000006 -0.745162 4.622275 -4.819038 -12.494472 -3.241231 -20.270171 20.269589 -16.421043 19.532488 0.000001 0.000000 -0.000000 0.069655 1.712624 16.068843 0.961255 -2.835604 37.446662 0.000003 0.000002 0.000006 -1.481024 -1.539718 34.863908 1.280266 -3.208981 43.491086 -0.000003 0.000004 -0.000004 0.444016 -4.646216 46.134151 1.072668 -2.975263 39.644597 0.000004 -0.000001 -0.000000 -3.290987 -10.677929 47.625762 1.487690 -3.414022 47.081129 -0.000000 -0.000001 -0.000001 0.000005 -0.000002 0.000002 0.000002 0.000000 0.000001 0.000002 0.000001 -0.000001 0.000002 0.000000 0.000001 0.000002 0.000000 0.000001 0.000002 0.000000 0.000001 0.000002 0.000001 -0.000001 0.000002 0.000000 0.000001 0.000002 0.000000 0.000001 0.000002 0.000000 0.000001 0.000002 0.000001 -0.000001 -0.000000 0.000000 -0.000000 -0.000000 0.000000 -0.000000 -0.000000 0.000000 -0.000000 
1.388515 64.352737 -7.071494 5.453271 -2.179982 6.688634 -0.000000 0.000000 0.000000 -34.394838 12.436536 8.875485 71.062921 3.706804 -3.101763 -19.045865 4.093892 -3.741452 0.000001 0.000001 -0.000000 0.000001 -0.000000 -0.000000 -41.752793 -7.276879 -0.081551 14.817394 -3.581241 0.371372 14.998930 -5.589696 -10.980194 0.000000 0.000000 0.000000 0.000003 0.000000 0.000000 22.984311 4.789245 4.821300 4.258595 0.800311 1.549333 4.258524 0.714024 1.554274 3.341596 -3.363929 -1.606578 -11.234910 -18.727665 -6.301188 -0.000001 -0.000001 0.000000 -0.000001 -0.000001 0.000000 -0.000001 -0.000001 0.000000 -0.000001 -0.000001 0.000000 -0.000002 -0.000001 0.000000 -0.000001 -0.000001 0.000000 -0.000002 -0.000001 0.000000 -0.000001 -0.000001 0.000000 -0.000001 -0.000001 0.000000 0.967971 -19.511093 -14.674306 -38.962507 -15.896453 -58.583441 0.000000 -17.045253 -0.000013 37.627850 -20.366164 27.052930 -1.563140 -4.951228 10.473483 14.557471 11.312864 0.713495 -0.000001 0.000001 -0.000001 1.047585 -5.226760 -3.874713 0.131103 1.233679 -12.131018 -0.000001 0.000001 0.000002 -0.042731 2.865744 -16.741965 0.144129 1.292796 -12.721677 -0.000001 -0.000001 -0.000003 4.243221 13.546814 -22.223665 0.369114 2.048410 -20.427491 0.000001 0.000001 -0.000001 9.097529 19.409180 -30.069652 0.245637 1.680186 -16.633370 -0.000002 -0.000001 0.000003 -0.000002 -0.000001 0.000001 2.164617 16.672871 12.303638 -32.821248 35.630389 40.102769 -0.000010 21.877475 0.000014 -7.228228 2.392622 7.579919 -11.558115 -3.751684 -18.563028 21.572430 -18.268924 20.667106 -0.000000 -0.000001 0.000001 0.461651 0.205041 26.737411 1.612693 -3.525906 49.146257 0.000002 -0.000001 0.000000 -0.904947 -3.398266 46.744742 1.956030 -3.795221 54.519892 -0.000001 0.000001 -0.000001 1.243500 -5.647781 59.565253 1.868387 -3.731342 53.184648 0.000003 -0.000001 0.000002 -2.546417 -11.234352 59.286547 2.283726 -4.008150 59.332836 -0.000002 -0.000000 -0.000003 0.000001 0.000003 -0.000001 -0.000002 -0.000001 -0.000001 -0.000000 0.000000 -0.000001 -0.000002 -0.000001 -0.000001 -0.000002 -0.000001 -0.000001 -0.000002 -0.000001 -0.000001 -0.000000 0.000000 -0.000000 -0.000002 -0.000001 -0.000001 -0.000002 -0.000001 -0.000001 -0.000002 -0.000001 -0.000001 -0.000000 0.000000 -0.000000 -0.000000 0.000000 0.000000 -0.000000 0.000000 0.000000 -0.000000 0.000000 0.000000 
1.816124 64.333199 -9.475698 3.482526 -1.706556 6.802435 -0.000000 -0.000000 0.000000 -23.353822 13.321874 4.883817 62.601744 1.423998 -3.441177 -27.193111 2.735059 -4.060355 -0.000000 0.000000 -0.000000 0.000001 0.000001 0.000000 -41.249135 -7.752130 -0.923707 14.488204 -3.714807 0.457770 12.484909 -7.242873 -10.582058 -0.000000 -0.000001 -0.000000 0.000002 0.000002 -0.000000 20.123616 2.892173 5.534888 4.199107 0.354290 1.360293 4.199842 0.244197 1.380007 3.304354 -3.416236 -1.796679 -7.033742 -15.940753 -10.337089 0.000000 0.000000 0.000000 0.000000 0.000000 0.000000 0.000000 0.000000 0.000000 0.000000 0.000000 0.000001 0.000000 -0.000000 -0.000000 0.000000 0.000000 0.000001 0.000000 -0.000000 -0.000000 0.000000 0.000000 0.000000 0.000000 0.000000 0.000000 0.896690 -19.377926 -15.633495 -34.000986 -9.247030 -54.216590 0.000004 -6.597925 -0.000007 38.987058 -16.147803 18.483962 -1.444277 -4.296447 10.694910 13.789590 9.480199 1.632918 -0.000001 0.000001 -0.000001 -0.430969 -5.462525 -7.749296 0.196332 1.505435 -14.859889 0.000000 0.000001 -0.000000 -0.056965 3.153621 -21.350126 0.279383 1.789218 -17.747951 0.000000 0.000001 0.000001 4.154694 12.087466 -25.658533 0.606507 2.597754 -26.278760 0.000001 0.000000 -0.000001 7.900990 18.175133 -29.727176 0.410743 2.156791 -21.561910 -0.000000 -0.000001 0.000003 0.000001 0.000001 0.000001 2.430635 15.348651 11.493075 -36.726952 39.152000 46.147640 0.000015 26.884717 -0.000005 -2.665045 2.356813 11.981128 -10.761716 -4.157733 -17.125630 23.207400 -20.325050 22.158197 -0.000003 -0.000001 0.000000 1.167375 -1.228227 34.143477 2.251767 -3.989048 58.874639 -0.000000 -0.000001 0.000000 0.051832 -4.667803 54.177528 2.593730 -4.176002 63.675040 0.000005 -0.000003 0.000002 2.508590 -6.419727 68.796643 2.569892 -4.164163 63.347341 0.000002 -0.000002 -0.000002 -1.787062 -11.810218 67.493047 3.012689 -4.357767 69.301674 0.000001 0.000002 0.000001 0.000002 0.000003 -0.000001 -0.000001 0.000001 -0.000001 -0.000000 0.000000 -0.000002 -0.000001 0.000001 0.000000 -0.000001 0.000001 0.000000 -0.000001 0.000001 -0.000001 -0.000000 0.000000 -0.000001 -0.000001 0.000001 0.000000 -0.000001 0.000001 0.000000 -0.000001 0.000001 -0.000001 -0.000000 0.000000 -0.000001 -0.000000 -0.000000 0.000000 -0.000000 -0.000000 0.000000 -0.000000 -0.000000 0.000000 
